<?xml version="1.0"?>
<svg width="1080" height="1080" xmlns="http://www.w3.org/2000/svg" xmlns:svg="http://www.w3.org/2000/svg" data-name="Capa 1">
 <defs>
  <style>.cls-1{fill:#0b1d4c;}.cls-2{font-size:25.01px;fill:#f32947;font-family:SequelSans-MediumHead, Sequel Sans;font-weight:500;letter-spacing:0.02em;}.cls-3{letter-spacing:0.01em;}.cls-4{letter-spacing:-0.01em;}.cls-5{letter-spacing:-0.09em;}.cls-6{fill:#f7f8ed;}</style>
 </defs>
 <g class="layer">
  <title>Layer 1</title>
  <text class="cls-2" id="svg_2" transform="translate(363.51 703.15)">EL ALIADO DE TU M
   <tspan class="cls-3" id="svg_3" x="246.15" y="0">A</tspan>
   <tspan id="svg_4" x="264.61" y="0">SC</tspan>
   <tspan class="cls-4" id="svg_5" x="300.84" y="0">O</tspan>
   <tspan class="cls-5" id="svg_6" x="319.98" y="0">T</tspan>
   <tspan id="svg_7" x="334.1" y="0">A</tspan></text>
  <path class="cls-6" d="m272.77,665.08l0,-65.63l15.16,0l0,52.32l31.8,0l0,13.31l-46.96,0z" id="svg_8"/>
  <path class="cls-6" d="m348.57,666a29,29 0 0 1 -11.05,-2a23.67,23.67 0 0 1 -8.13,-5.48a23.39,23.39 0 0 1 -5.08,-8a26.65,26.65 0 0 1 0,-18.89a24.39,24.39 0 0 1 5,-7.94a22.86,22.86 0 0 1 8.13,-5.43a29.46,29.46 0 0 1 11.05,-2a29.09,29.09 0 0 1 11,2a23.41,23.41 0 0 1 8.13,5.43a24,24 0 0 1 5.09,7.94a25.72,25.72 0 0 1 1.75,9.49a26.11,26.11 0 0 1 -1.71,9.4a23.5,23.5 0 0 1 -13.26,13.46a29.09,29.09 0 0 1 -10.92,2.02zm-10.81,-24.82a13.73,13.73 0 0 0 1.43,6.39a11.12,11.12 0 0 0 3.81,4.43a10.45,10.45 0 0 0 11.05,0a10.89,10.89 0 0 0 3.84,-4.32a15.72,15.72 0 0 0 0,-12.88a11.24,11.24 0 0 0 -3.84,-4.37a10.21,10.21 0 0 0 -11,0a11.71,11.71 0 0 0 -3.88,4.37a13.74,13.74 0 0 0 -1.41,6.39l0,-0.01z" id="svg_9"/>
  <path class="cls-6" d="m400.42,666a35.74,35.74 0 0 1 -12.06,-2.08a27.74,27.74 0 0 1 -10,-6.06l5.18,-9.24a35.88,35.88 0 0 0 8.55,4.85a22,22 0 0 0 7.9,1.62a9.62,9.62 0 0 0 4.39,-0.83a2.77,2.77 0 0 0 1.62,-2.65a2.47,2.47 0 0 0 -1,-2.1a11.83,11.83 0 0 0 -2.82,-1.41c-1.23,-0.45 -2.77,-0.93 -4.62,-1.41q-5.55,-1.91 -9.24,-3.6a13.75,13.75 0 0 1 -5.55,-4.19a10.71,10.71 0 0 1 -1.85,-6.51a14.35,14.35 0 0 1 2.5,-8.42a16.28,16.28 0 0 1 7,-5.6a26.21,26.21 0 0 1 10.77,-2a31.25,31.25 0 0 1 9.8,1.57a24.81,24.81 0 0 1 9,5.36l-5.83,9.15a36.72,36.72 0 0 0 -7.34,-4.16a17.3,17.3 0 0 0 -6.34,-1.29a10.61,10.61 0 0 0 -2.86,0.36a4.55,4.55 0 0 0 -2.08,1.18a3.12,3.12 0 0 0 -0.79,2.27a3,3 0 0 0 0.79,2.13a5.83,5.83 0 0 0 2.49,1.45c1.14,0.4 2.55,0.84 4.21,1.32a94.49,94.49 0 0 1 10.12,3.54a14.52,14.52 0 0 1 6,4.35a11.17,11.17 0 0 1 2,6.9a13.58,13.58 0 0 1 -5.36,11.38q-5.43,4.12 -14.58,4.12z" id="svg_10"/>
  <path class="cls-6" d="m464.3,599.45l16.26,0l22.74,65.63l-15.53,0l-4.44,-14.69l-21.67,0l-4.48,14.69l-15.53,0l22.65,-65.63zm15.89,40.55l-7.67,-25.33l-7.71,25.33l15.38,0z" id="svg_11"/>
  <path class="cls-6" d="m537.6,666a19.39,19.39 0 0 1 -9.66,-2.31a17.27,17.27 0 0 1 -6.61,-6.66l0,8l-12.85,0l0,-67.42l14.79,0l0,27.54a17.26,17.26 0 0 1 6.42,-6.47a20.35,20.35 0 0 1 17.94,-0.44a19.69,19.69 0 0 1 6.65,5.34a26.16,26.16 0 0 1 4.39,8a29.59,29.59 0 0 1 1.57,9.81a27.3,27.3 0 0 1 -1.71,9.67a24.46,24.46 0 0 1 -4.76,7.94a21,21 0 0 1 -7.16,5.2a21.92,21.92 0 0 1 -9.01,1.8zm-4.16,-12.48a11,11 0 0 0 4.67,-0.95a11.84,11.84 0 0 0 3.65,-2.57a11.65,11.65 0 0 0 2.45,-3.82a12.79,12.79 0 0 0 0.88,-4.73a14.41,14.41 0 0 0 -1.39,-6.31a11.91,11.91 0 0 0 -3.88,-4.64a9.59,9.59 0 0 0 -5.64,-1.75a9.38,9.38 0 0 0 -4.44,1.12a13.72,13.72 0 0 0 -3.79,3a15.32,15.32 0 0 0 -2.68,4.18l0,10a12.36,12.36 0 0 0 4.3,4.73a11.22,11.22 0 0 0 2.86,1.31a10.62,10.62 0 0 0 3.01,0.44l0,-0.01z" id="svg_12"/>
  <path class="cls-6" d="m567.08,647.91l0,-30.8l14.79,0l0,27.5a10.58,10.58 0 0 0 1.8,6.6a6,6 0 0 0 5,2.32a11.19,11.19 0 0 0 3.88,-0.67a11.47,11.47 0 0 0 3.61,-2.2a14.5,14.5 0 0 0 3.14,-4l0,-29.55l14.79,0l0,31.58a5.19,5.19 0 0 0 0.7,3.1a3.09,3.09 0 0 0 2.45,1l0,12.29a27.22,27.22 0 0 1 -3.56,0.6a15.91,15.91 0 0 1 -2.73,0.05a10.52,10.52 0 0 1 -6.19,-1.46a6.74,6.74 0 0 1 -2.87,-4.57l-0.28,-2.93a20.19,20.19 0 0 1 -8.22,7a26.47,26.47 0 0 1 -11.05,2.23q-7.4,0 -11.33,-4.62t-3.93,-13.47z" id="svg_13"/>
  <path class="cls-6" d="m648.8,666a28.94,28.94 0 0 1 -11,-2a24.58,24.58 0 0 1 -8.18,-5.34a22.87,22.87 0 0 1 -5.12,-7.82a24.74,24.74 0 0 1 -1.76,-9.28a26,26 0 0 1 3.08,-12.56a23.76,23.76 0 0 1 8.92,-9.16a30.43,30.43 0 0 1 28.11,0a22.78,22.78 0 0 1 8.82,9.09a25.54,25.54 0 0 1 3,12.14a23,23 0 0 1 -0.14,2.51c-0.09,0.82 -0.17,1.53 -0.23,2.14l-35.86,0a9.59,9.59 0 0 0 5.73,8.54a12.08,12.08 0 0 0 5,1.07a13.12,13.12 0 0 0 6.34,-1.57a8.1,8.1 0 0 0 3.93,-4.16l12.56,3.56a20.27,20.27 0 0 1 -5.18,6.61a26.38,26.38 0 0 1 -7.9,4.53a28.73,28.73 0 0 1 -10.12,1.7zm-10.63,-29.4l21,0a10.79,10.79 0 0 0 -1.76,-5.12a10.45,10.45 0 0 0 -3.69,-3.38a11.37,11.37 0 0 0 -10.17,0a9.47,9.47 0 0 0 -3.7,3.34a11.05,11.05 0 0 0 -1.68,5.17l0,-0.01z" id="svg_14"/>
  <path class="cls-6" d="m681.24,597.61l14.76,0l0,50.19c0,2 0.37,3.48 1.11,4.34a4,4 0 0 0 3.23,1.3a10.86,10.86 0 0 0 2.73,-0.38a8.22,8.22 0 0 0 2.54,-1.1l1.94,11.18a37.44,37.44 0 0 1 -6.38,2a30.3,30.3 0 0 1 -6.74,0.83q-6.39,0 -9.8,-3.38t-3.39,-9.59l0,-55.39z" id="svg_15"/>
  <path class="cls-6" d="m735.5,666a29,29 0 0 1 -11,-2a23.67,23.67 0 0 1 -13.22,-13.46a26.11,26.11 0 0 1 -1.71,-9.4a25.72,25.72 0 0 1 1.76,-9.49a24.39,24.39 0 0 1 5,-7.94a22.77,22.77 0 0 1 8.13,-5.43a29.46,29.46 0 0 1 11,-2a29.09,29.09 0 0 1 11,2a23.41,23.41 0 0 1 8.13,5.43a24.2,24.2 0 0 1 5.09,7.94a25.72,25.72 0 0 1 1.75,9.49a26.11,26.11 0 0 1 -1.71,9.4a23.5,23.5 0 0 1 -13.26,13.46a29.09,29.09 0 0 1 -10.96,2zm-10.82,-24.82a13.86,13.86 0 0 0 1.43,6.39a11.22,11.22 0 0 0 3.89,4.43a10.45,10.45 0 0 0 11,0a10.79,10.79 0 0 0 3.83,-4.32a15.61,15.61 0 0 0 0,-12.88a11.14,11.14 0 0 0 -3.83,-4.37a10.21,10.21 0 0 0 -11,0a11.71,11.71 0 0 0 -3.88,4.37a13.63,13.63 0 0 0 -1.44,6.39l0,-0.01z" id="svg_16"/>
  <path class="cls-6" d="m787.35,666a35.74,35.74 0 0 1 -12.06,-2.08a27.74,27.74 0 0 1 -10,-6.06l5.18,-9.24a35.88,35.88 0 0 0 8.55,4.85a22,22 0 0 0 7.9,1.62a9.62,9.62 0 0 0 4.39,-0.83a2.77,2.77 0 0 0 1.62,-2.65a2.47,2.47 0 0 0 -1,-2.1a11.83,11.83 0 0 0 -2.82,-1.41c-1.23,-0.45 -2.77,-0.93 -4.62,-1.41q-5.55,-1.91 -9.25,-3.6a13.78,13.78 0 0 1 -5.54,-4.19a10.64,10.64 0 0 1 -1.85,-6.51a14.42,14.42 0 0 1 2.49,-8.42a16.37,16.37 0 0 1 7,-5.6a26.21,26.21 0 0 1 10.77,-2a31.25,31.25 0 0 1 9.8,1.57a24.89,24.89 0 0 1 9,5.36l-5.91,9.15a36.49,36.49 0 0 0 -7.35,-4.16a17.21,17.21 0 0 0 -6.33,-1.29a10.61,10.61 0 0 0 -2.86,0.36a4.55,4.55 0 0 0 -2.08,1.18a3.12,3.12 0 0 0 -0.79,2.27a3,3 0 0 0 0.79,2.13a5.83,5.83 0 0 0 2.49,1.45c1.14,0.4 2.54,0.84 4.21,1.32a95.28,95.28 0 0 1 10.12,3.54a14.52,14.52 0 0 1 6,4.35a11.17,11.17 0 0 1 2,6.9a13.58,13.58 0 0 1 -5.36,11.38q-5.34,4.12 -14.49,4.12z" id="svg_17"/>
  <path class="cls-6" d="m603.81,330.51s1,11.58 -1.65,17.13c0,0 10.92,0.91 9.59,8.76c0,0 2.24,5.13 7.78,4.8s7.94,0.42 7.94,0.42s6.95,0.08 2.56,8.76c0,0 1.24,8.28 -4.46,7.61c0,0 -8.85,12.49 -34.5,1.91c0,0 1.24,3.55 13.82,5.62c-4.86,-0.8 -4.56,20.18 -4.56,22.13a136.41,136.41 0 0 0 3.85,31.82c1.11,4.59 2.87,9 3.9,13.59c1.08,4.81 0.48,8.89 0.11,13.69c-1.07,14.17 -2.13,28.34 -2.94,42.53c-0.55,9.57 -2,20 -0.69,29.52c1.07,7.94 4.79,31.1 4.79,31.1s11.09,2.9 9.35,10.09l-20.51,-0.66a65.84,65.84 0 0 1 -1.49,-11.41c-0.08,-5.21 -1.41,-24.65 -1.41,-24.65l-3.56,-28.62l-0.66,-17s-0.16,-4 1.41,-5.79s2.65,-9.85 2.65,-9.85s-3,17.54 -21.43,16.79c0,0 -4.05,6.13 -4.46,11l0.41,32.84l0.74,15.88l3.73,13.15s5.7,2.32 6.37,6.45l-18.86,0.42l-1.41,-8.77l-0.5,-18.61c-0.28,-5 -0.69,-10.09 -1.12,-15.13s-0.88,-10.13 -1.25,-15.19s-0.66,-10.12 -0.77,-15.19c-0.05,-2.52 -0.06,-5.05 0,-7.57s0.21,-5 0.19,-7.45c0,-1.68 -0.09,-3.37 -0.23,-5.06a30.93,30.93 0 0 0 -0.62,-4.39c-0.19,-0.83 -0.5,-2.37 -1.29,-2.85a9,9 0 0 0 0.21,2.12c0.13,1.37 0.23,2.75 0.31,4.13a42,42 0 0 1 -0.27,9.58a10.14,10.14 0 0 1 -0.28,1.24s-4.13,-5.62 -18.61,-3.8c0,0 8.94,23.65 -19.68,44.25c0,0 -9.1,21.43 8.6,34.74c0,0 9.18,2.15 7.36,7.7l-16.71,0.08l-14.14,-42.77s21.83,-14.8 5.37,-43.34c0,0 7.12,-7.94 8.85,-7.69a40.9,40.9 0 0 0 -20.35,17.28a111,111 0 0 1 -7.29,12.05c-6.4,9.38 -16.67,14.52 -23,23.66c-6.8,9.78 -8.63,21.86 -6.11,33.42a9.71,9.71 0 0 1 6.78,8.27l-16.13,0.74s-2.07,-12.16 -0.33,-15.8s0.83,-28.76 0.83,-28.78s5,-3.31 5.39,-3.61a45.41,45.41 0 0 0 11,-15.92c5.92,-13.65 10.23,-27.95 13.87,-42.36c2.63,-10.4 5.25,-17.45 13.35,-25c0,0 2,-1.82 -0.5,-7.2s-0.41,-7.11 -0.41,-7.11s2.56,-2.32 5.71,3.39c2.39,4.35 8.7,3.12 12.62,2.28c6,-1.28 11.85,-2.4 17.57,-4.64a72.18,72.18 0 0 0 31.72,-24.29c2.82,-3.85 5.66,-8.36 6.46,-13.16c0.55,-3.3 0.78,-6.6 1.56,-9.89c1.47,-6.22 3.54,-15.6 9.15,-19.53c0,0 -6.45,-3.93 -7.2,-11.48a76,76 0 0 1 0.17,-14.83s-0.83,-10.09 -2.73,-12.08c0,0 7.77,0.58 10.83,9.68a13.1,13.1 0 0 0 12.08,9s7.36,2 8.6,-7.61s4.53,-10.54 4.53,-10.54z" id="svg_18"/>
 </g>
</svg>